# xmcd
#
# Track frame offsets: 
#        182
#        22382
#        39242
#        57847
#        75070
#        96727
#        116767
#        135552
#        154895
#        172130
#        191792
#        208577
#
# Disc length: 3094 seconds
#
# Revision: 9
# Processed by: cddbd v1.5.2PL0 Copyright (c) Steve Scherf et al.
# Submitted via: ExactAudioCopyFreeDBPlugin 1.0
#
DISCID=a80c140c
DTITLE=Keith Sweat - Still In The Game
DYEAR=1998
DGENRE=R&B
TTITLE0=Come And Get With Me Feat. Snoop Dogg
TTITLE1=Rumors
TTITLE2=Can We Make Love
TTITLE3=Let Me Have My Way
TTITLE4=What Goes Around
TTITLE5=Love Jones
TTITLE6=Too Hot
TTITLE7=I'm Not Ready
TTITLE8=Show U What Love Is
TTITLE9=Just Another Day
TTITLE10=You Know I Like
TTITLE11=In Your Eyes
EXTD=
EXTT0=
EXTT1=
EXTT2=
EXTT3=
EXTT4=
EXTT5=
EXTT6=
EXTT7=
EXTT8=
EXTT9=
EXTT10=
EXTT11=
PLAYORDER=
